<?xml version="1.0" encoding="UTF-8"?>
<!-- Generator: visioncortex VTracer 0.6.3 -->
<svg version="1.1" xmlns="http://www.w3.org/2000/svg" width="1280" height="1279">
<path d="M0 0 C4.28 0 8.56 -0 12.84 -0.02 C37.37 -0.12 61.52 0.1 85.88 3.32 C87.26 3.49 87.26 3.49 88.67 3.68 C93.8 4.35 98.9 5.12 104 5.94 C105.41 6.16 106.81 6.38 108.22 6.6 C123.55 8.99 123.55 8.99 124.88 10.32 C126.95 10.53 129.03 10.74 131.11 10.95 C136.38 11.65 141.52 12.96 146.69 14.19 C147.79 14.45 148.89 14.7 150.02 14.97 C157.32 16.68 164.6 18.48 171.88 20.32 C172.97 20.59 172.97 20.59 174.08 20.86 C176.24 21.41 178.37 22.04 180.5 22.69 C181.39 22.96 182.28 23.23 183.19 23.5 C184.08 23.77 184.96 24.04 185.88 24.32 C186.64 24.54 187.4 24.77 188.19 25 C190.75 25.77 193.32 26.54 195.88 27.32 C196.49 27.5 197.1 27.68 197.73 27.87 C204.93 30.03 212 32.19 218.81 35.42 C221.91 36.76 225.12 37.62 228.36 38.55 C231.68 39.56 234.85 40.83 238.05 42.15 C242.64 44.04 247.26 45.84 251.87 47.66 C256.94 49.72 261.9 52.02 266.88 54.32 C267.97 54.82 269.07 55.32 270.19 55.84 C273.65 57.43 277.11 59.03 280.56 60.63 C282.35 61.45 282.35 61.45 284.17 62.29 C287.07 63.63 289.98 64.97 292.88 66.32 C292.88 66.98 292.88 67.64 292.88 68.32 C293.89 68.45 293.89 68.45 294.92 68.59 C298.63 69.5 301.82 71.13 305.19 72.88 C305.83 73.21 306.48 73.54 307.14 73.88 C308.72 74.68 310.3 75.5 311.88 76.32 C311.88 76.98 311.88 77.64 311.88 78.32 C312.59 78.42 313.31 78.53 314.04 78.63 C317.19 79.39 319.43 80.57 322.22 82.21 C323.26 82.83 324.31 83.44 325.39 84.08 C326.52 84.75 327.65 85.43 328.81 86.13 C329.4 86.48 329.98 86.83 330.59 87.18 C352.1 100.04 372.99 114.06 392.88 129.32 C393.51 129.8 394.15 130.29 394.81 130.79 C402.79 136.92 410.55 143.3 418.18 149.86 C419.95 151.38 421.72 152.89 423.5 154.41 C437.36 166.27 450.46 178.81 463.38 191.69 C463.94 192.25 464.51 192.82 465.09 193.4 C470.71 199 476.28 204.59 481.43 210.63 C483.58 213.14 485.86 215.53 488.13 217.94 C492.63 222.8 496.78 227.87 500.83 233.11 C503.71 236.85 506.68 240.48 509.75 244.07 C515.62 251.06 520.89 258.45 526.16 265.9 C527.86 268.3 529.58 270.69 531.29 273.07 C563.73 318.53 590.91 369.37 608.86 422.32 C609.58 424.45 610.31 426.58 611.05 428.71 C616.67 445.07 621.86 461.45 626.1 478.23 C626.85 481.2 627.62 484.16 628.39 487.12 C631.67 499.94 634.2 512.87 636.56 525.88 C636.71 526.67 636.85 527.45 637 528.27 C653.87 620.82 648.92 716.49 624.88 807.32 C624.56 808.51 624.24 809.71 623.92 810.94 C608.46 868.47 584.16 923.66 552.88 974.32 C551.88 975.94 550.89 977.56 549.9 979.19 C545.46 986.4 540.82 993.43 535.88 1000.32 C534.86 1001.79 533.83 1003.27 532.81 1004.75 C523.46 1018.08 513.69 1031.04 503.3 1043.58 C501.26 1046.06 499.26 1048.57 497.25 1051.07 C493.16 1056.06 488.83 1060.8 484.44 1065.53 C482.33 1067.82 480.28 1070.14 478.25 1072.5 C475.03 1076.23 471.55 1079.66 468.04 1083.12 C466.17 1085.02 464.46 1086.95 462.75 1089 C458.69 1093.75 454.07 1097.91 449.47 1102.13 C446.32 1105.02 443.24 1107.94 440.24 1110.98 C437.51 1113.73 434.67 1116.22 431.63 1118.63 C427.81 1121.7 424.15 1124.86 420.56 1128.19 C414.83 1133.46 408.78 1138.24 402.61 1142.98 C400.98 1144.24 399.35 1145.51 397.73 1146.78 C370.04 1168.32 340.63 1187.48 309.6 1203.88 C306.81 1205.35 304.02 1206.84 301.24 1208.34 C272.56 1223.61 242.7 1236.05 211.88 1246.32 C210.95 1246.63 210.03 1246.94 209.08 1247.26 C158.61 1264.14 107 1273.27 54.1 1278.11 C52.53 1278.25 50.97 1278.41 49.41 1278.58 C41.75 1279.36 34.13 1279.53 26.43 1279.59 C25.75 1279.6 25.07 1279.6 24.36 1279.61 C19.16 1279.65 13.96 1279.68 8.75 1279.69 C7.6 1279.69 7.6 1279.69 6.43 1279.7 C-21.69 1279.76 -49.25 1278.15 -77.12 1274.32 C-78.66 1274.11 -80.2 1273.91 -81.73 1273.7 C-153.19 1264.08 -224.11 1242.55 -287.64 1208.23 C-291.59 1206.11 -295.58 1204.13 -299.62 1202.19 C-346.55 1178.97 -390.32 1144.56 -428.42 1108.91 C-430.22 1107.22 -432.03 1105.55 -433.85 1103.87 C-453.73 1085.47 -453.73 1085.47 -462.16 1075.56 C-464.31 1073.1 -466.54 1070.72 -468.78 1068.33 C-474.06 1062.71 -479.15 1057.02 -483.97 1050.99 C-486.18 1048.24 -488.46 1045.56 -490.75 1042.88 C-497.27 1035.06 -503.3 1026.88 -509.36 1018.69 C-510.9 1016.62 -512.45 1014.56 -514 1012.5 C-524.6 998.4 -534.15 983.5 -543.12 968.32 C-543.56 967.58 -544 966.84 -544.45 966.09 C-547.36 961.17 -550.24 956.25 -553.12 951.32 C-553.7 950.33 -554.28 949.34 -554.88 948.33 C-555.56 947.15 -555.56 947.15 -556.25 945.94 C-556.81 944.97 -556.81 944.97 -557.38 943.98 C-558.12 942.32 -558.12 942.32 -558.12 939.32 C-558.78 939.32 -559.44 939.32 -560.12 939.32 C-561.9 935.78 -563.68 932.24 -565.46 928.7 C-566.35 926.92 -567.25 925.13 -568.15 923.35 C-571.3 917.07 -574.33 910.76 -577.12 904.32 C-577.89 902.65 -578.66 900.98 -579.44 899.32 C-584.5 888.18 -588.99 876.8 -593.37 865.38 C-593.7 864.53 -594.03 863.68 -594.37 862.8 C-596.29 857.75 -597.95 852.69 -599.46 847.51 C-600.22 845.01 -601.15 842.64 -602.19 840.25 C-603.8 836.35 -604.81 832.59 -605.63 828.46 C-606.28 825.64 -607.28 823.04 -608.33 820.35 C-610.3 815.3 -612.11 810.41 -612.69 805 C-612.89 801.5 -612.89 801.5 -614.12 799.32 C-615.45 796.65 -615.54 794.13 -615.84 791.19 C-616.04 789.23 -616.04 789.23 -617.12 787.32 C-618.43 784.7 -618.55 782.13 -618.84 779.25 C-619.06 777.19 -619.06 777.19 -620.12 774.94 C-621.41 771.58 -621.56 768.39 -621.78 764.82 C-622.16 762.05 -623.08 759.89 -624.12 757.32 C-624.55 755.35 -624.93 753.37 -625.25 751.38 C-625.42 750.38 -625.58 749.38 -625.76 748.35 C-626.12 745.31 -626.19 742.38 -626.12 739.32 C-626.45 739.32 -626.78 739.32 -627.12 739.32 C-627.76 734.96 -628.38 730.61 -629 726.25 C-629.26 724.47 -629.26 724.47 -629.53 722.65 C-632.21 703.59 -633.44 684.61 -633.42 665.38 C-633.43 663.36 -633.43 661.33 -633.44 659.31 C-633.44 655.1 -633.44 650.9 -633.44 646.7 C-633.43 642.46 -633.44 638.22 -633.46 633.98 C-633.56 609.57 -633.28 585.56 -630.12 561.32 C-629.95 559.92 -629.95 559.92 -629.77 558.49 C-629.09 553.02 -628.3 547.57 -627.44 542.13 C-627.31 541.33 -627.19 540.54 -627.06 539.72 C-624.25 521.73 -620.39 504.01 -616.12 486.32 C-615.86 485.22 -615.6 484.12 -615.33 482.99 C-605.68 443.19 -591.06 405.5 -574.12 368.32 C-573.7 367.38 -573.28 366.45 -572.84 365.48 C-565.57 349.46 -557.21 334.06 -548.44 318.82 C-547.82 317.74 -547.2 316.67 -546.56 315.56 C-541.12 306.18 -535.33 297.03 -529.31 288 C-528.89 287.37 -528.47 286.75 -528.04 286.1 C-523.94 279.99 -519.67 274 -515.36 268.04 C-514.14 266.33 -512.93 264.61 -511.73 262.89 C-505.72 254.3 -499.25 246.17 -492.58 238.09 C-490.64 235.73 -488.76 233.34 -486.87 230.94 C-482.83 225.87 -478.5 221.1 -474.12 216.32 C-472.58 214.61 -471.04 212.9 -469.5 211.19 C-468.83 210.45 -468.15 209.7 -467.46 208.93 C-466.22 207.55 -464.99 206.16 -463.8 204.74 C-458.11 198.05 -451.86 191.9 -445.64 185.71 C-443.69 183.76 -441.74 181.8 -439.79 179.85 C-433.74 173.79 -427.66 167.86 -421.12 162.32 C-419.33 160.68 -417.53 159.03 -415.75 157.38 C-411.6 153.6 -407.37 150.02 -402.96 146.56 C-400.8 144.85 -398.66 143.11 -396.54 141.35 C-387.73 134.06 -378.67 127.3 -369.26 120.8 C-367.12 119.31 -364.99 117.8 -362.87 116.28 C-336.56 97.48 -308.66 80.66 -279.56 66.51 C-276.73 65.12 -273.9 63.72 -271.07 62.32 C-255.35 54.58 -239.43 47.69 -223.12 41.32 C-222.14 40.92 -221.15 40.53 -220.14 40.13 C-203.08 33.36 -185.66 27.97 -168.04 22.87 C-166.25 22.35 -164.47 21.83 -162.68 21.31 C-137.02 13.85 -110.82 9.03 -84.44 5 C-83.64 4.88 -82.85 4.76 -82.03 4.63 C-76.4 3.77 -70.77 3 -65.12 2.32 C-63.93 2.17 -63.93 2.17 -62.71 2.01 C-41.92 -0.49 -20.9 -0.02 0 0 Z M-65.12 3.32 C-65.12 3.65 -65.12 3.98 -65.12 4.32 C-63.47 4.32 -61.82 4.32 -60.12 4.32 C-60.12 3.99 -60.12 3.66 -60.12 3.32 C-61.77 3.32 -63.42 3.32 -65.12 3.32 Z M73.88 3.32 C77.88 4.32 77.88 4.32 77.88 4.32 Z M-613.12 477.32 C-612.12 479.32 -612.12 479.32 -612.12 479.32 Z M-620.12 507.32 C-619.12 509.32 -619.12 509.32 -619.12 509.32 Z M-623.12 522.32 C-622.12 525.32 -622.12 525.32 -622.12 525.32 Z M-624.12 528.32 C-623.12 530.32 -623.12 530.32 -623.12 530.32 Z M-626.12 540.32 C-625.12 542.32 -625.12 542.32 -625.12 542.32 Z M-627.12 546.32 C-626.12 549.32 -626.12 549.32 -626.12 549.32 Z M-629.12 561.32 C-628.12 564.32 -628.12 564.32 -628.12 564.32 Z M-630.12 569.32 C-630.12 570.97 -630.12 572.62 -630.12 574.32 C-629.79 574.32 -629.46 574.32 -629.12 574.32 C-629.12 572.67 -629.12 571.02 -629.12 569.32 C-629.45 569.32 -629.78 569.32 -630.12 569.32 Z M-632.12 592.32 C-631.12 595.32 -631.12 595.32 -631.12 595.32 Z M-632.12 684.32 C-631.12 687.32 -631.12 687.32 -631.12 687.32 Z M-631.12 695.32 C-630.12 697.32 -630.12 697.32 -630.12 697.32 Z M-630.12 705.32 C-630.12 706.97 -630.12 708.62 -630.12 710.32 C-629.79 710.32 -629.46 710.32 -629.12 710.32 C-629.12 708.67 -629.12 707.02 -629.12 705.32 C-629.45 705.32 -629.78 705.32 -630.12 705.32 Z M-629.12 716.32 C-628.12 718.32 -628.12 718.32 -628.12 718.32 Z M-627.12 730.32 C-626.12 734.32 -626.12 734.32 -626.12 734.32 Z M-624.12 749.32 C-623.12 751.32 -623.12 751.32 -623.12 751.32 Z M-623.12 755.32 C-622.12 757.32 -622.12 757.32 -622.12 757.32 Z M-620.12 770.32 C-619.12 772.32 -619.12 772.32 -619.12 772.32 Z " fill="#1E8BCD" transform="translate(633.123291015625,-0.315673828125)"/>
<path d="M0 0 C4.28 0 8.56 -0 12.84 -0.02 C37.37 -0.12 61.52 0.1 85.88 3.32 C87.26 3.49 87.26 3.49 88.67 3.68 C93.8 4.35 98.9 5.12 104 5.94 C105.41 6.16 106.81 6.38 108.22 6.6 C123.55 8.99 123.55 8.99 124.88 10.32 C126.95 10.53 129.03 10.74 131.11 10.95 C136.38 11.65 141.52 12.96 146.69 14.19 C147.79 14.45 148.89 14.7 150.02 14.97 C157.32 16.68 164.6 18.48 171.88 20.32 C172.97 20.59 172.97 20.59 174.08 20.86 C176.24 21.41 178.37 22.04 180.5 22.69 C181.39 22.96 182.28 23.23 183.19 23.5 C184.08 23.77 184.96 24.04 185.88 24.32 C186.64 24.54 187.4 24.77 188.19 25 C190.75 25.77 193.32 26.54 195.88 27.32 C196.49 27.5 197.1 27.68 197.73 27.87 C204.93 30.03 212 32.19 218.81 35.42 C221.91 36.76 225.12 37.62 228.36 38.55 C231.68 39.56 234.85 40.83 238.05 42.15 C242.64 44.04 247.26 45.84 251.87 47.66 C256.94 49.72 261.9 52.02 266.88 54.32 C267.97 54.82 269.07 55.32 270.19 55.84 C273.65 57.43 277.11 59.03 280.56 60.63 C282.35 61.45 282.35 61.45 284.17 62.29 C287.07 63.63 289.98 64.97 292.88 66.32 C292.88 66.98 292.88 67.64 292.88 68.32 C293.89 68.45 293.89 68.45 294.92 68.59 C298.63 69.5 301.82 71.13 305.19 72.88 C305.83 73.21 306.48 73.54 307.14 73.88 C308.72 74.68 310.3 75.5 311.88 76.32 C311.88 76.98 311.88 77.64 311.88 78.32 C312.59 78.42 313.31 78.53 314.04 78.63 C317.19 79.39 319.43 80.57 322.22 82.21 C323.26 82.83 324.31 83.44 325.39 84.08 C326.52 84.75 327.65 85.43 328.81 86.13 C329.4 86.48 329.98 86.83 330.59 87.18 C352.1 100.04 372.99 114.06 392.88 129.32 C393.51 129.8 394.15 130.29 394.81 130.79 C402.79 136.92 410.55 143.3 418.18 149.86 C419.95 151.38 421.72 152.89 423.5 154.41 C437.36 166.27 450.46 178.81 463.38 191.69 C463.94 192.25 464.51 192.82 465.09 193.4 C470.71 199 476.28 204.59 481.43 210.63 C483.58 213.14 485.86 215.53 488.13 217.94 C492.63 222.8 496.78 227.87 500.83 233.11 C503.71 236.85 506.68 240.48 509.75 244.07 C515.62 251.06 520.89 258.45 526.16 265.9 C527.86 268.3 529.58 270.69 531.29 273.07 C563.73 318.53 590.91 369.37 608.86 422.32 C609.58 424.45 610.31 426.58 611.05 428.71 C616.67 445.07 621.86 461.45 626.1 478.23 C626.85 481.2 627.62 484.16 628.39 487.12 C631.67 499.94 634.2 512.87 636.56 525.88 C636.71 526.67 636.85 527.45 637 528.27 C653.87 620.82 648.92 716.49 624.88 807.32 C624.56 808.51 624.24 809.71 623.92 810.94 C608.46 868.47 584.16 923.66 552.88 974.32 C551.88 975.94 550.89 977.56 549.9 979.19 C545.46 986.4 540.82 993.43 535.88 1000.32 C534.86 1001.79 533.83 1003.27 532.81 1004.75 C523.46 1018.08 513.69 1031.04 503.3 1043.58 C501.26 1046.06 499.26 1048.57 497.25 1051.07 C493.16 1056.06 488.83 1060.8 484.44 1065.53 C482.33 1067.82 480.28 1070.14 478.25 1072.5 C475.03 1076.23 471.55 1079.66 468.04 1083.12 C466.17 1085.02 464.46 1086.95 462.75 1089 C458.69 1093.75 454.07 1097.91 449.47 1102.13 C446.32 1105.02 443.24 1107.94 440.24 1110.98 C437.51 1113.73 434.67 1116.22 431.63 1118.63 C427.81 1121.7 424.15 1124.86 420.56 1128.19 C414.83 1133.46 408.78 1138.24 402.61 1142.98 C400.98 1144.24 399.35 1145.51 397.73 1146.78 C370.04 1168.32 340.63 1187.48 309.6 1203.88 C306.81 1205.35 304.02 1206.84 301.24 1208.34 C272.56 1223.61 242.7 1236.05 211.88 1246.32 C210.95 1246.63 210.03 1246.94 209.08 1247.26 C158.61 1264.14 107 1273.27 54.1 1278.11 C52.53 1278.25 50.97 1278.41 49.41 1278.58 C41.75 1279.36 34.13 1279.53 26.43 1279.59 C25.75 1279.6 25.07 1279.6 24.36 1279.61 C19.16 1279.65 13.96 1279.68 8.75 1279.69 C7.6 1279.69 7.6 1279.69 6.43 1279.7 C-21.69 1279.76 -49.25 1278.15 -77.12 1274.32 C-78.66 1274.11 -80.2 1273.91 -81.73 1273.7 C-153.19 1264.08 -224.11 1242.55 -287.64 1208.23 C-291.59 1206.11 -295.58 1204.13 -299.62 1202.19 C-346.55 1178.97 -390.32 1144.56 -428.42 1108.91 C-430.22 1107.22 -432.03 1105.55 -433.85 1103.87 C-453.73 1085.47 -453.73 1085.47 -462.16 1075.56 C-464.31 1073.1 -466.54 1070.72 -468.78 1068.33 C-474.06 1062.71 -479.15 1057.02 -483.97 1050.99 C-486.18 1048.24 -488.46 1045.56 -490.75 1042.88 C-497.27 1035.06 -503.3 1026.88 -509.36 1018.69 C-510.9 1016.62 -512.45 1014.56 -514 1012.5 C-524.6 998.4 -534.15 983.5 -543.12 968.32 C-543.56 967.58 -544 966.84 -544.45 966.09 C-547.36 961.17 -550.24 956.25 -553.12 951.32 C-553.7 950.33 -554.28 949.34 -554.88 948.33 C-555.56 947.15 -555.56 947.15 -556.25 945.94 C-556.81 944.97 -556.81 944.97 -557.38 943.98 C-558.12 942.32 -558.12 942.32 -558.12 939.32 C-558.78 939.32 -559.44 939.32 -560.12 939.32 C-561.9 935.78 -563.68 932.24 -565.46 928.7 C-566.35 926.92 -567.25 925.13 -568.15 923.35 C-571.3 917.07 -574.33 910.76 -577.12 904.32 C-577.89 902.65 -578.66 900.98 -579.44 899.32 C-584.5 888.18 -588.99 876.8 -593.37 865.38 C-593.7 864.53 -594.03 863.68 -594.37 862.8 C-596.29 857.75 -597.95 852.69 -599.46 847.51 C-600.22 845.01 -601.15 842.64 -602.19 840.25 C-603.8 836.35 -604.81 832.59 -605.63 828.46 C-606.28 825.64 -607.28 823.04 -608.33 820.35 C-610.3 815.3 -612.11 810.41 -612.69 805 C-612.89 801.5 -612.89 801.5 -614.12 799.32 C-615.45 796.65 -615.54 794.13 -615.84 791.19 C-616.04 789.23 -616.04 789.23 -617.12 787.32 C-618.43 784.7 -618.55 782.13 -618.84 779.25 C-619.06 777.19 -619.06 777.19 -620.12 774.94 C-621.41 771.58 -621.56 768.39 -621.78 764.82 C-622.16 762.05 -623.08 759.89 -624.12 757.32 C-624.55 755.35 -624.93 753.37 -625.25 751.38 C-625.42 750.38 -625.58 749.38 -625.76 748.35 C-626.12 745.31 -626.19 742.38 -626.12 739.32 C-626.45 739.32 -626.78 739.32 -627.12 739.32 C-627.76 734.96 -628.38 730.61 -629 726.25 C-629.26 724.47 -629.26 724.47 -629.53 722.65 C-632.21 703.59 -633.44 684.61 -633.42 665.38 C-633.43 663.36 -633.43 661.33 -633.44 659.31 C-633.44 655.1 -633.44 650.9 -633.44 646.7 C-633.43 642.46 -633.44 638.22 -633.46 633.98 C-633.56 609.57 -633.28 585.56 -630.12 561.32 C-629.95 559.92 -629.95 559.92 -629.77 558.49 C-629.09 553.02 -628.3 547.57 -627.44 542.13 C-627.31 541.33 -627.19 540.54 -627.06 539.72 C-624.25 521.73 -620.39 504.01 -616.12 486.32 C-615.86 485.22 -615.6 484.12 -615.33 482.99 C-605.68 443.19 -591.06 405.5 -574.12 368.32 C-573.7 367.38 -573.28 366.45 -572.84 365.48 C-565.57 349.46 -557.21 334.06 -548.44 318.82 C-547.82 317.74 -547.2 316.67 -546.56 315.56 C-541.12 306.18 -535.33 297.03 -529.31 288 C-528.89 287.37 -528.47 286.75 -528.04 286.1 C-523.94 279.99 -519.67 274 -515.36 268.04 C-514.14 266.33 -512.93 264.61 -511.73 262.89 C-505.72 254.3 -499.25 246.17 -492.58 238.09 C-490.64 235.73 -488.76 233.34 -486.87 230.94 C-482.83 225.87 -478.5 221.1 -474.12 216.32 C-472.58 214.61 -471.04 212.9 -469.5 211.19 C-468.83 210.45 -468.15 209.7 -467.46 208.93 C-466.22 207.55 -464.99 206.16 -463.8 204.74 C-458.11 198.05 -451.86 191.9 -445.64 185.71 C-443.69 183.76 -441.74 181.8 -439.79 179.85 C-433.74 173.79 -427.66 167.86 -421.12 162.32 C-419.33 160.68 -417.53 159.03 -415.75 157.38 C-411.6 153.6 -407.37 150.02 -402.96 146.56 C-400.8 144.85 -398.66 143.11 -396.54 141.35 C-387.73 134.06 -378.67 127.3 -369.26 120.8 C-367.12 119.31 -364.99 117.8 -362.87 116.28 C-336.56 97.48 -308.66 80.66 -279.56 66.51 C-276.73 65.12 -273.9 63.72 -271.07 62.32 C-255.35 54.58 -239.43 47.69 -223.12 41.32 C-222.14 40.92 -221.15 40.53 -220.14 40.13 C-203.08 33.36 -185.66 27.97 -168.04 22.87 C-166.25 22.35 -164.47 21.83 -162.68 21.31 C-137.02 13.85 -110.82 9.03 -84.44 5 C-83.64 4.88 -82.85 4.76 -82.03 4.63 C-76.4 3.77 -70.77 3 -65.12 2.32 C-63.93 2.17 -63.93 2.17 -62.71 2.01 C-41.92 -0.49 -20.9 -0.02 0 0 Z M-65.12 3.32 C-65.12 3.65 -65.12 3.98 -65.12 4.32 C-63.47 4.32 -61.82 4.32 -60.12 4.32 C-60.12 3.99 -60.12 3.66 -60.12 3.32 C-61.77 3.32 -63.42 3.32 -65.12 3.32 Z M73.88 3.32 C77.88 4.32 77.88 4.32 77.88 4.32 Z M-321.12 250.32 C-321.72 250.81 -322.31 251.31 -322.93 251.81 C-339.66 265.78 -356.4 280.75 -370.5 297.42 C-372.4 299.64 -374.39 301.79 -376.37 303.94 C-381.45 309.57 -386.08 315.52 -390.72 321.51 C-392.08 323.26 -393.46 325 -394.85 326.73 C-430.5 371.31 -458.2 423.14 -476.12 477.32 C-476.69 479.01 -476.69 479.01 -477.26 480.74 C-492.17 526.17 -502.15 574.36 -502.33 622.34 C-502.33 623.63 -502.34 624.92 -502.35 626.25 C-502.37 630.4 -502.37 634.55 -502.37 638.69 C-502.37 639.4 -502.37 640.1 -502.37 640.83 C-502.38 661.81 -502.17 682.52 -499.12 703.32 C-498.92 704.78 -498.71 706.24 -498.51 707.7 C-484.71 804.59 -444.74 894.74 -381.25 969.25 C-380.8 969.78 -380.36 970.3 -379.9 970.84 C-371.14 981.06 -361.87 990.75 -352.36 1000.26 C-350.62 1002.01 -348.88 1003.76 -347.15 1005.51 C-341.17 1011.52 -335.12 1017.19 -328.46 1022.45 C-326.22 1024.24 -324.1 1026.12 -322 1028.07 C-315.08 1034.28 -307.55 1039.75 -300.12 1045.32 C-299.46 1045.81 -298.81 1046.31 -298.13 1046.81 C-272.81 1065.78 -245.73 1082.46 -217.26 1096.27 C-215.01 1097.37 -212.78 1098.49 -210.55 1099.61 C-155.85 1126.74 -94.72 1141.25 -34.12 1146.32 C-32.48 1146.46 -32.48 1146.46 -30.81 1146.61 C-18.7 1147.55 -6.58 1147.56 5.56 1147.57 C6.71 1147.57 7.86 1147.57 9.04 1147.57 C29.12 1147.55 48.94 1146.76 68.88 1144.32 C69.57 1144.23 70.26 1144.15 70.98 1144.06 C159.83 1133.01 243.08 1098.13 328.98 1032.81 C331.67 1030.49 334.41 1028.27 337.19 1026.07 C349.14 1016.29 360.01 1005.27 370.94 994.38 C371.43 993.89 371.92 993.4 372.43 992.89 C378.14 987.21 383.66 981.45 388.88 975.32 C389.83 974.23 390.78 973.15 391.73 972.07 C399.53 963.13 406.78 953.82 413.88 944.32 C414.61 943.34 414.61 943.34 415.36 942.34 C430.03 922.75 442.98 902.1 454.65 880.58 C455.46 879.08 456.28 877.58 457.11 876.08 C486.69 822.23 503.72 761.71 511.13 700.94 C511.21 700.26 511.29 699.57 511.38 698.87 C513.05 685.02 514.03 671.25 514.08 657.29 C514.09 656 514.09 654.71 514.1 653.38 C514.12 649.23 514.13 645.09 514.13 640.94 C514.13 640.23 514.13 639.53 514.13 638.8 C514.13 617.81 513.81 597.14 510.88 576.32 C510.7 574.99 510.53 573.66 510.36 572.34 C502.79 514.42 484.91 459.53 458.88 407.32 C458.46 406.47 458.03 405.62 457.6 404.75 C441.8 373.25 421.66 343.21 398.88 316.32 C397.98 315.25 397.09 314.18 396.2 313.12 C390.56 306.39 384.8 299.79 378.88 293.32 C378.2 292.57 378.2 292.57 377.51 291.82 C368.43 281.82 359.23 271.85 348.92 263.08 C346.42 260.92 344 258.68 341.56 256.44 C336.16 251.52 330.6 246.85 324.88 242.32 C324.23 241.8 323.58 241.28 322.91 240.75 C299.85 222.46 275.64 206.55 249.88 192.32 C249.05 191.86 248.22 191.4 247.37 190.93 C164.9 145.67 69.28 125.8 -321.12 250.32 Z M-613.12 477.32 C-612.12 479.32 -612.12 479.32 -612.12 479.32 Z M-620.12 507.32 C-619.12 509.32 -619.12 509.32 -619.12 509.32 Z M-623.12 522.32 C-622.12 525.32 -622.12 525.32 -622.12 525.32 Z M-624.12 528.32 C-623.12 530.32 -623.12 530.32 -623.12 530.32 Z M-626.12 540.32 C-625.12 542.32 -625.12 542.32 -625.12 542.32 Z M-627.12 546.32 C-626.12 549.32 -626.12 549.32 -626.12 549.32 Z M-629.12 561.32 C-628.12 564.32 -628.12 564.32 -628.12 564.32 Z M-630.12 569.32 C-630.12 570.97 -630.12 572.62 -630.12 574.32 C-629.79 574.32 -629.46 574.32 -629.12 574.32 C-629.12 572.67 -629.12 571.02 -629.12 569.32 C-629.45 569.32 -629.78 569.32 -630.12 569.32 Z M-632.12 592.32 C-631.12 595.32 -631.12 595.32 -631.12 595.32 Z M-632.12 684.32 C-631.12 687.32 -631.12 687.32 -631.12 687.32 Z M-631.12 695.32 C-630.12 697.32 -630.12 697.32 -630.12 697.32 Z M-630.12 705.32 C-630.12 706.97 -630.12 708.62 -630.12 710.32 C-629.79 710.32 -629.46 710.32 -629.12 710.32 C-629.12 708.67 -629.12 707.02 -629.12 705.32 C-629.45 705.32 -629.78 705.32 -630.12 705.32 Z M-629.12 716.32 C-628.12 718.32 -628.12 718.32 -628.12 718.32 Z M-627.12 730.32 C-626.12 734.32 -626.12 734.32 -626.12 734.32 Z M-624.12 749.32 C-623.12 751.32 -623.12 751.32 -623.12 751.32 Z M-623.12 755.32 C-622.12 757.32 -622.12 757.32 -622.12 757.32 Z M-620.12 770.32 C-619.12 772.32 -619.12 772.32 -619.12 772.32 Z " fill="#E21018" transform="translate(633.123291015625,-0.315673828125)"/>
<path d="M0 0 C6.9 2.94 10.79 10.11 13.54 16.86 C17.73 29.71 18.53 42.88 18.51 56.29 C18.51 57.41 18.51 58.53 18.51 59.69 C18.51 63.33 18.51 66.98 18.5 70.62 C18.5 71.88 18.5 73.13 18.5 74.42 C18.48 94.03 18.23 113.63 17.73 133.24 C17.4 146.31 17.32 159.36 17.38 172.44 C20.51 172.44 21.95 170.49 24.31 168.5 C25.3 167.68 26.29 166.85 27.31 166 C28.32 165.16 29.33 164.31 30.38 163.44 C32.21 161.93 34.04 160.43 35.88 158.94 C36.79 158.19 37.71 157.44 38.65 156.67 C40.4 155.23 42.16 153.8 43.91 152.36 C46.17 150.52 48.43 148.67 50.69 146.82 C51.94 145.8 53.19 144.78 54.44 143.76 C56.71 141.9 58.98 140.05 61.25 138.19 C62.34 137.3 62.34 137.3 63.45 136.4 C64.14 135.83 64.84 135.26 65.55 134.67 C66.17 134.17 66.79 133.67 67.42 133.15 C75.17 126.37 83.03 118.25 84.08 107.59 C84.33 102.24 84.19 96.91 84 91.56 C83.37 71.36 83.37 71.36 86.97 67.11 C88.42 65.86 89.89 64.64 91.38 63.44 C93.09 61.75 94.77 60.02 96.45 58.29 C99 55.66 101.59 53.08 104.18 50.5 C106.2 48.48 108.22 46.46 110.23 44.44 C111.52 43.16 112.8 41.88 114.08 40.6 C114.68 39.99 115.29 39.39 115.91 38.77 C121.77 32.93 125.94 33.11 133.9 33.09 C144.07 33.24 153.54 35.46 163.38 37.9 C165.35 38.37 167.33 38.84 169.31 39.31 C174.48 40.54 179.65 41.79 184.82 43.05 C189.93 44.3 195.04 45.52 200.16 46.74 C206.23 48.19 212.29 49.64 218.35 51.12 C228.45 53.57 238.55 55.94 248.71 58.15 C251.66 58.8 254.61 59.45 257.57 60.11 C259.43 60.52 261.3 60.91 263.17 61.3 C280.72 64.95 280.72 64.95 287.38 72.44 C290.44 74.96 292.12 75.82 296.11 75.91 C296.99 75.94 297.88 75.98 298.79 76.01 C300.16 76.03 300.16 76.03 301.56 76.06 C303.39 76.11 305.22 76.17 307.04 76.23 C308.25 76.25 308.25 76.25 309.49 76.28 C311.38 76.44 311.38 76.44 312.38 77.44 C312.61 79.96 312.8 82.47 312.94 85 C313 86.07 313 86.07 313.07 87.15 C313.17 88.92 313.28 90.68 313.38 92.44 C314.29 92.42 315.2 92.4 316.14 92.38 C329.91 92.59 343.79 96.81 355.38 104.44 C353.97 107.6 352.32 109.74 349.88 112.18 C348.81 113.25 348.81 113.25 347.71 114.35 C346.94 115.12 346.16 115.89 345.37 116.68 C344.17 117.87 344.17 117.87 342.94 119.1 C341.25 120.79 339.55 122.48 337.86 124.16 C335.28 126.72 332.7 129.29 330.13 131.87 C328.48 133.51 326.83 135.16 325.18 136.8 C324.42 137.56 323.66 138.32 322.87 139.11 C319.39 142.56 315.87 145.92 312.16 149.12 C308.88 151.95 305.96 154.9 303.05 158.12 C302.1 159.14 301.14 160.16 300.18 161.18 C298.71 162.74 297.25 164.32 295.82 165.92 C287.77 174.92 287.77 174.92 281.64 176.25 C277.87 176.45 277.87 176.45 274.39 176.32 C270.19 176.48 268.81 178.17 266.07 181.1 C263.82 182.88 262.28 182.8 259.44 182.88 C253.25 183.16 250.52 186.11 246.38 190.44 C245.55 191.24 244.73 192.04 243.88 192.87 C241.67 195.02 239.47 197.17 237.38 199.44 C237.38 199.77 237.38 200.1 237.38 200.44 C238.52 200.45 239.66 200.47 240.84 200.48 C276.76 201.36 315.81 212.61 345.13 233.87 C366.39 248.71 396.14 251.64 421.12 247.38 C441.33 243.41 462.91 235.4 478.38 221.44 C479.19 220.72 480 220 480.84 219.25 C482.57 217.71 484.29 216.16 485.99 214.6 C487.98 212.79 490.01 211.05 492.06 209.31 C505.45 197.61 517.1 184.55 527.1 169.86 C528.15 168.35 529.25 166.89 530.38 165.44 C531.03 165.44 531.7 165.44 532.38 165.44 C532.7 164.45 533.03 163.46 533.38 162.44 C521.9 245.08 521.9 245.08 498.38 263.44 C494.74 265.7 490.98 267.59 487.12 269.44 C486.08 269.95 485.03 270.46 483.95 270.99 C473.98 275.78 463.82 279.82 453.38 283.44 C452.18 283.86 452.18 283.86 450.96 284.29 C411.21 298.15 364.92 300.2 326.08 282.39 C319.15 279.03 312.54 275.29 306.18 270.96 C275.89 250.39 234.32 249.83 199.06 252.19 C197.46 252.28 197.46 252.28 195.82 252.37 C185.69 253.15 180.82 257.67 173.94 264.69 C173.31 265.32 172.68 265.95 172.03 266.6 C168.98 269.68 166.03 272.81 163.21 276.11 C157.41 282.82 150.94 288.93 144.63 295.17 C138.95 300.79 133.32 306.36 128.13 312.45 C124.27 316.81 120.07 320.84 115.94 324.94 C115.02 325.86 114.09 326.77 113.14 327.72 C110.89 329.96 108.63 332.2 106.38 334.44 C109.58 335.5 111.31 335.4 114.44 334.17 C115.22 333.86 116.01 333.56 116.82 333.24 C117.66 332.89 118.51 332.55 119.38 332.19 C120.26 331.83 121.14 331.47 122.05 331.1 C131.04 327.33 139.44 322.65 147.9 317.83 C207.76 284.12 207.76 284.12 236.94 291.32 C240.02 292.36 243.06 293.49 246.1 294.64 C250.83 296.3 255.68 297.58 260.5 298.94 C297.32 309.56 297.32 309.56 307.38 323.44 C318.69 336.22 339.5 339.43 355.78 340.61 C360.64 340.84 365.49 340.87 370.35 340.83 C372.81 340.81 375.26 340.83 377.72 340.85 C392.89 340.87 407.77 338.98 422.31 334.56 C423.19 334.3 424.07 334.04 424.97 333.78 C434.53 330.89 443.44 327.11 452.22 322.36 C454.38 321.44 454.38 321.44 458.38 321.44 C457.85 326.13 455.73 329.44 453.12 333.25 C452.69 333.9 452.25 334.55 451.79 335.22 C443.37 347.43 433.65 358.76 423.38 369.44 C422.59 370.26 421.81 371.07 421.01 371.92 C418.75 374.27 416.48 376.62 414.2 378.95 C412.85 380.34 411.5 381.74 410.16 383.14 C401.04 392.38 391.33 397.54 378.19 397.82 C339.18 397.72 302.7 374.75 272.86 351.47 C254.2 337.34 226.71 333.97 204.06 336.72 C187.72 339.35 170.92 348.29 159.62 360.31 C137.4 383.31 100.51 391.83 69.71 392.56 C47.42 392.92 23.37 391.39 2.39 383.29 C-3.1 381.74 -7.77 383.7 -13.01 385.5 C-14.2 385.91 -15.38 386.31 -16.6 386.72 C-17.83 387.15 -19.05 387.57 -20.31 388 C-22.75 388.84 -25.19 389.67 -27.64 390.5 C-28.71 390.87 -29.79 391.25 -30.9 391.63 C-33.62 392.44 -33.62 392.44 -36.62 392.44 C-36.62 393.43 -36.62 394.42 -36.62 395.44 C-35.94 395.53 -35.26 395.62 -34.55 395.71 C-30.96 396.6 -27.96 398.22 -24.75 400 C-24.09 400.36 -23.43 400.71 -22.75 401.08 C-19.51 402.84 -16.28 404.63 -13.08 406.46 C3.21 415.69 20.92 421.46 39.38 424.44 C40.45 424.61 41.52 424.79 42.62 424.97 C46.59 425.46 50.49 425.62 54.48 425.64 C55.24 425.65 56 425.65 56.79 425.66 C79.76 425.97 79.76 425.97 102.38 422.44 C103.31 422.21 104.25 421.99 105.21 421.75 C134.42 414.56 160.99 401.95 186.46 386.06 C208.06 372.64 229.73 372.48 253.86 378.01 C277.87 383.88 300.37 394.39 322.38 405.44 C323.25 405.88 324.12 406.31 325.02 406.77 C334.01 411.31 342.8 416.15 351.44 421.31 C352.21 421.77 352.98 422.22 353.77 422.68 C354.47 423.12 355.18 423.55 355.91 423.99 C356.53 424.37 357.16 424.74 357.8 425.13 C359.68 426.69 360.43 428.21 361.38 430.44 C354.06 436.64 346.59 442.19 338.56 447.44 C337.51 448.13 336.45 448.83 335.37 449.54 C332.38 451.51 329.38 453.48 326.38 455.44 C325.02 456.33 323.66 457.22 322.3 458.12 C256.77 501.03 180.75 529.4 102.38 535.44 C101.69 535.49 101 535.55 100.29 535.61 C11.49 542.6 -76.83 521.02 -235.62 428.44 C-236.28 427.78 -236.94 427.12 -237.62 426.44 C-237.44 423.75 -236.83 422.65 -234.94 420.72 C-229.19 416.38 -223.29 412.79 -216.88 409.5 C-215.87 408.98 -214.87 408.47 -213.84 407.93 C-182.34 392.03 -147.64 384.33 -112.62 381.44 C-113.14 380.77 -113.66 380.1 -114.2 379.42 C-121.55 369.7 -126.53 360.52 -127.19 348.25 C-127.23 347.5 -127.27 346.75 -127.32 345.98 C-127.42 344.13 -127.53 342.28 -127.62 340.44 C-145.53 343.55 -161.17 353.75 -176.56 362.88 C-183.2 366.8 -189.95 370.51 -196.74 374.16 C-201.02 376.47 -205.27 378.79 -209.47 381.23 C-218.64 386.54 -227.35 390.7 -237.62 393.44 C-238.52 393.68 -239.41 393.92 -240.33 394.18 C-257.96 398.16 -278.15 396.03 -293.62 386.44 C-312.12 374.74 -330.06 354.28 -335.34 332.47 C-335.44 331.8 -335.53 331.13 -335.62 330.44 C-334.91 330.73 -334.19 331.02 -333.45 331.32 C-328.79 333.16 -324.05 334.76 -319.31 336.38 C-318.32 336.72 -317.34 337.07 -316.32 337.43 C-302.07 342.26 -288.4 344 -273.44 343.88 C-272.68 343.87 -271.92 343.87 -271.13 343.86 C-241.71 343.68 -216.08 335.05 -191.56 318.88 C-172.81 306.56 -152.78 300.36 -130.62 297.44 C-129.66 297.31 -128.69 297.17 -127.69 297.04 C-114.7 295.58 -97.09 294.28 -84.62 298.44 C-84.55 297.67 -84.47 296.89 -84.4 296.1 C-84.05 292.61 -83.68 289.12 -83.31 285.62 C-83.19 284.41 -83.08 283.2 -82.96 281.94 C-82.77 280.2 -82.77 280.2 -82.57 278.42 C-82.46 277.34 -82.35 276.27 -82.24 275.16 C-81.57 272.19 -81.18 271.08 -78.62 269.44 C-76.98 269.44 -75.32 269.44 -73.62 269.44 C-73.95 261.52 -74.29 253.6 -74.62 245.44 C-79.98 244.69 -79.98 244.69 -85.44 243.94 C-86.54 243.78 -87.64 243.62 -88.77 243.46 C-121.73 239.03 -152.54 251.01 -179.69 269 C-204.66 285.52 -234.72 295.22 -264.62 296.44 C-266.1 296.5 -266.1 296.5 -267.61 296.56 C-298.43 297.19 -328.79 288.77 -355.86 274.36 C-357.52 273.49 -359.2 272.68 -360.89 271.88 C-361.85 271.4 -362.82 270.93 -363.81 270.44 C-364.63 270.05 -365.45 269.65 -366.29 269.25 C-373.21 263.87 -376.25 254.07 -379.69 246.31 C-379.97 245.69 -380.24 245.06 -380.53 244.41 C-410.62 176.69 -410.62 176.69 -410.62 155.44 C-406.58 157.01 -404.12 159.89 -401.31 163.06 C-400.82 163.6 -400.34 164.15 -399.83 164.7 C-397.23 167.6 -394.67 170.54 -392.12 173.5 C-385.91 180.65 -379.09 187.38 -371.88 193.52 C-370.12 195.02 -368.38 196.54 -366.65 198.07 C-352.73 210.36 -337.61 221 -321.62 230.44 C-321.03 230.8 -320.43 231.16 -319.81 231.53 C-309.06 237.92 -297.63 242.01 -285.62 245.44 C-284.91 245.64 -284.19 245.85 -283.45 246.06 C-263.78 251.07 -242.54 248.46 -225.2 238.25 C-221.79 236.18 -218.41 234.05 -215.03 231.93 C-190.91 217.01 -163.51 207.99 -135.62 203.44 C-134.56 203.26 -133.5 203.08 -132.4 202.89 C-122.51 201.38 -112.8 201.13 -102.8 201.18 C-100.13 201.19 -97.46 201.18 -94.79 201.16 C-83.31 201.16 -71.77 201.4 -60.62 204.44 C-60.3 203.45 -59.96 202.46 -59.62 201.44 C-56.92 200.4 -54.34 199.53 -51.56 198.75 C-50.42 198.41 -50.42 198.41 -49.26 198.07 C-47.39 197.51 -45.51 196.97 -43.62 196.44 C-43.63 195.68 -43.63 194.92 -43.63 194.14 C-43.66 175.69 -43.65 157.23 -43.6 138.78 C-43.57 129.85 -43.56 120.93 -43.58 112 C-43.6 104.22 -43.59 96.44 -43.55 88.65 C-43.53 84.53 -43.53 80.42 -43.55 76.3 C-43.57 72.42 -43.56 68.53 -43.52 64.65 C-43.52 63.23 -43.52 61.81 -43.54 60.4 C-43.65 50.19 -41.49 43.76 -35.62 35.44 C-34.65 33.95 -33.68 32.46 -32.7 30.97 C-12.27 1.48 -12.27 1.48 0 0 Z " fill="#FBFBF1" transform="translate(577.625,588.5625)"/>
<path d="M0 0 C3.5 2.33 3.81 3.43 5.25 7.29 C5.68 8.43 6.12 9.58 6.56 10.75 C6.8 11.38 7.03 12.01 7.27 12.65 C8.57 16.16 9.91 19.65 11.24 23.15 C11.53 23.92 11.82 24.69 12.12 25.48 C16.04 35.78 20.12 46.01 24.19 56.25 C25.01 58.32 25.83 60.39 26.65 62.47 C28.3 66.62 29.95 70.78 31.6 74.94 C35.28 84.23 38.95 93.52 42.62 102.81 C43.67 105.46 44.72 108.11 45.77 110.76 C46.46 112.52 47.16 114.28 47.85 116.04 C50.34 122.33 52.83 128.62 55.31 134.91 C79.9 197.07 79.9 197.07 89.65 221.95 C92.47 229.13 95.3 236.3 98.14 243.48 C98.51 244.4 98.87 245.32 99.25 246.28 C101.11 250.99 102.98 255.71 104.85 260.43 C107.93 268.2 111.01 275.98 113.98 283.8 C114.4 284.88 114.82 285.97 115.24 287.09 C115.97 289 116.69 290.92 117.4 292.83 C117.86 294.05 117.86 294.05 118.34 295.29 C118.59 295.96 118.84 296.64 119.1 297.34 C120.03 299.35 120.03 299.35 123 301 C130.57 291.28 137.9 281.4 145.19 271.47 C148.12 267.48 151.06 263.49 154 259.5 C157.49 254.76 160.98 250.03 164.46 245.29 C171.06 236.32 177.7 227.39 184.39 218.49 C189.27 211.99 194.1 205.45 198.91 198.91 C204.55 191.23 210.27 183.61 216 176 C219.39 177.13 219.86 177.8 221.86 180.62 C222.41 181.38 222.96 182.14 223.53 182.93 C224.12 183.76 224.71 184.58 225.31 185.44 C226.57 187.18 227.84 188.93 229.11 190.67 C229.75 191.56 230.4 192.45 231.06 193.37 C234.01 197.37 237.06 201.28 240.12 205.19 C244.48 210.75 248.78 216.34 253 222 C257.26 227.72 261.61 233.38 266 239 C270.99 245.39 275.9 251.83 280.75 258.32 C284.52 263.37 288.34 268.36 292.18 273.34 C295.75 277.96 299.28 282.61 302.81 287.25 C307.7 293.67 312.59 300.09 317.5 306.5 C323.03 313.73 328.55 320.96 334.06 328.2 C338.2 333.64 342.35 339.07 346.5 344.5 C352.03 351.73 357.55 358.96 363.06 366.2 C367.2 371.64 371.35 377.07 375.5 382.5 C395.83 409.08 395.83 409.08 405.62 422.19 C410.91 429.26 416.29 436.26 421.73 443.21 C426.71 449.58 431.55 456.05 436.39 462.53 C441.16 468.91 446.03 475.21 450.94 481.49 C455.18 486.92 459.33 492.42 463.45 497.95 C467.33 503.15 471.31 508.27 475.31 513.38 C489 530.88 489 530.88 489 533 C478.96 534.22 472.86 531.99 464.51 526.95 C458.72 523.53 453.58 522.45 447 524 C441.78 525.78 439.63 528.37 436.97 532.99 C435.85 535.3 435.24 537.44 435 540 C429.39 536.4 426.72 531.05 423.44 525.44 C422.19 523.34 420.93 521.24 419.68 519.15 C419.06 518.11 418.44 517.06 417.8 515.99 C415.28 511.8 412.68 507.68 410.06 503.56 C409.08 502.01 408.1 500.46 407.11 498.91 C406.61 498.12 406.11 497.33 405.59 496.52 C396.54 482.2 387.63 467.8 378.77 453.36 C374.43 446.29 370.03 439.26 365.58 432.26 C361.32 425.55 357.16 418.78 353 412 C347.84 403.6 342.64 395.22 337.36 386.9 C333.21 380.36 329.14 373.78 325.07 367.19 C320.9 360.44 316.71 353.72 312.5 347 C307.81 339.51 303.14 332.01 298.5 324.5 C293.9 317.05 289.27 309.61 284.62 302.19 C284 301.18 283.37 300.18 282.72 299.15 C279.58 294.12 276.43 289.09 273.28 284.06 C266.06 272.53 258.89 260.96 251.78 249.37 C247.36 242.19 242.9 235.05 238.38 227.94 C233.99 221 229.67 214.02 225.36 207.03 C222.65 202.63 219.9 198.28 217 194 C213.94 197.78 211 201.64 208.12 205.56 C207.65 206.21 207.18 206.85 206.7 207.51 C200.91 215.44 195.32 223.5 189.71 231.55 C185.65 237.36 181.56 243.14 177.46 248.93 C175.99 251.02 174.51 253.11 173.04 255.2 C167.93 262.46 162.78 269.69 157.56 276.88 C152.54 283.8 147.68 290.82 142.87 297.9 C138.68 304.06 134.34 310.12 129.96 316.14 C125.19 322.7 120.54 329.34 115.91 335.99 C112.15 341.38 108.34 346.72 104.45 352 C103.26 353.64 102.12 355.32 101 357 C96.98 349.75 94.65 342.08 92.24 334.19 C91.78 332.69 91.31 331.2 90.85 329.7 C89.85 326.49 88.86 323.28 87.87 320.07 C86.29 314.92 84.7 309.77 83.1 304.63 C81.43 299.23 79.76 293.83 78.09 288.43 C72.72 271.07 67.3 253.73 61.88 236.38 C60.31 231.35 58.73 226.32 57.16 221.29 C50.51 200.02 43.85 178.76 37.19 157.5 C30.61 136.53 24.04 115.56 17.48 94.59 C16.64 91.88 15.79 89.18 14.95 86.47 C13.77 82.71 12.59 78.95 11.42 75.18 C11.05 74 10.68 72.82 10.3 71.6 C8.41 65.56 6.54 59.51 4.69 53.46 C4.32 52.25 3.95 51.05 3.57 49.8 C2.86 47.51 2.16 45.22 1.46 42.92 C1.15 41.91 0.84 40.89 0.52 39.85 C0.25 38.96 -0.02 38.07 -0.3 37.15 C-0.95 34.98 -0.95 34.98 -2 33 C-9.62 50.19 -17.21 67.38 -24.59 84.67 C-28.13 92.98 -31.71 101.28 -35.31 109.56 C-39.95 120.24 -44.55 130.93 -49.12 141.62 C-54.93 155.2 -60.77 168.76 -66.62 182.31 C-67.03 183.25 -67.44 184.19 -67.85 185.16 C-72.87 196.78 -77.9 208.39 -82.94 220 C-86.92 229.18 -90.88 238.36 -94.81 247.56 C-99.43 258.36 -104.08 269.15 -108.75 279.94 C-109.09 280.71 -109.42 281.49 -109.77 282.29 C-112.52 288.66 -115.28 295.03 -118.04 301.41 C-128.7 326.03 -128.7 326.03 -139.31 350.69 C-139.79 351.8 -140.26 352.9 -140.75 354.04 C-143.23 359.82 -145.68 365.61 -148.11 371.4 C-148.62 372.6 -149.12 373.8 -149.65 375.04 C-150.61 377.33 -151.57 379.62 -152.52 381.92 C-153.17 383.45 -153.17 383.45 -153.82 385 C-154.19 385.9 -154.57 386.79 -154.95 387.72 C-156 390 -156 390 -158 393 C-161.75 386.06 -164.27 378.85 -166.79 371.39 C-167.25 370.04 -167.71 368.69 -168.17 367.35 C-169.15 364.48 -170.13 361.61 -171.1 358.74 C-172.64 354.19 -174.19 349.65 -175.74 345.11 C-176.27 343.58 -176.79 342.04 -177.32 340.51 C-177.58 339.74 -177.84 338.98 -178.11 338.2 C-178.9 335.88 -179.69 333.57 -180.48 331.25 C-185.05 317.84 -189.67 304.45 -194.31 291.06 C-195.03 289 -195.74 286.93 -196.46 284.86 C-197.89 280.74 -199.32 276.61 -200.75 272.49 C-204.47 261.76 -208.18 251.03 -211.9 240.29 C-213.83 234.71 -215.76 229.13 -217.7 223.55 C-218.34 221.68 -218.99 219.81 -219.63 217.95 C-219.9 217.18 -220.16 216.41 -220.44 215.62 C-220.72 214.82 -220.72 214.82 -221 214 C-225.08 219.7 -228.97 225.41 -232.44 231.5 C-236.79 239.02 -241.31 246.42 -245.88 253.81 C-250.67 261.58 -255.44 269.35 -260.12 277.19 C-266.1 287.19 -272.16 297.14 -278.23 307.09 C-279.97 309.94 -281.7 312.8 -283.44 315.66 C-289.63 325.85 -295.86 336.03 -302.12 346.19 C-306.8 353.76 -311.44 361.36 -316 369 C-320.5 376.54 -325.08 384.03 -329.69 391.5 C-335.3 400.61 -340.89 409.73 -346.44 418.88 C-346.79 419.46 -347.14 420.04 -347.5 420.63 C-349.29 423.58 -351.07 426.52 -352.86 429.47 C-356.05 434.73 -359.24 439.99 -362.44 445.25 C-363.5 447 -364.56 448.75 -365.62 450.49 C-368.82 455.77 -372.03 461.05 -375.24 466.33 C-384.88 482.18 -394.47 498.07 -404 514 C-404.75 513.69 -405.51 513.38 -406.29 513.05 C-409.65 511.75 -412.38 511.13 -416 511 C-420.9 513.76 -424.48 517.35 -428.31 521.38 C-440.05 533.35 -440.05 533.35 -447.81 534.62 C-451.51 533.9 -452.74 532.96 -455 530 C-456.46 527.09 -456.35 525.25 -456 522 C-454.7 519.35 -453 517.05 -451.25 514.69 C-450.76 513.99 -450.26 513.3 -449.75 512.59 C-448.71 511.12 -447.65 509.66 -446.6 508.2 C-444.55 505.38 -442.55 502.53 -440.54 499.67 C-439.05 497.54 -437.54 495.41 -436.04 493.29 C-433.02 489.03 -430.01 484.76 -427 480.5 C-426 479.08 -425 477.67 -424 476.25 C-423.5 475.55 -423.01 474.85 -422.5 474.12 C-421 472 -419.5 469.88 -418 467.75 C-417.26 466.7 -417.26 466.7 -416.5 465.63 C-415.5 464.21 -414.5 462.79 -413.5 461.37 C-411.01 457.85 -408.52 454.32 -406.04 450.79 C-400.93 443.53 -395.78 436.3 -390.56 429.12 C-385.54 422.2 -380.68 415.18 -375.87 408.1 C-371.67 401.94 -367.34 395.88 -362.95 389.84 C-357.09 381.77 -351.39 373.58 -345.68 365.4 C-343.09 361.7 -340.48 358 -337.88 354.31 C-337.39 353.62 -336.9 352.93 -336.4 352.22 C-335.42 350.84 -334.44 349.46 -333.47 348.08 C-330.98 344.55 -328.49 341.03 -326 337.5 C-325 336.08 -324 334.67 -323 333.25 C-322.5 332.55 -322.01 331.85 -321.5 331.12 C-316 323.33 -310.5 315.54 -305 307.75 C-304.51 307.05 -304.01 306.35 -303.5 305.63 C-302.5 304.21 -301.5 302.79 -300.5 301.37 C-298.01 297.85 -295.52 294.32 -293.04 290.79 C-287.93 283.53 -282.78 276.3 -277.56 269.12 C-273.1 262.98 -268.76 256.78 -264.5 250.5 C-259.72 243.45 -254.81 236.51 -249.8 229.62 C-246.19 224.65 -242.61 219.65 -239.06 214.62 C-238.58 213.95 -238.1 213.27 -237.61 212.57 C-234.78 208.57 -232 204.54 -229.24 200.49 C-228.61 199.57 -227.98 198.64 -227.32 197.69 C-226.08 195.88 -224.85 194.07 -223.63 192.25 C-223.07 191.43 -222.51 190.62 -221.93 189.78 C-221.44 189.05 -220.94 188.32 -220.44 187.57 C-219.96 187.05 -219.49 186.53 -219 186 C-218.01 186 -217.02 186 -216 186 C-215.7 186.67 -215.4 187.34 -215.09 188.03 C-213.6 191.35 -212.11 194.68 -210.62 198 C-210.34 198.63 -210.06 199.27 -209.76 199.92 C-206.08 208.14 -202.39 216.36 -198.69 224.57 C-191.12 241.37 -183.57 258.18 -176.1 275.04 C-172.04 284.22 -167.93 293.38 -163.78 302.52 C-163.34 303.48 -162.9 304.45 -162.44 305.45 C-160.28 310.21 -158.12 314.97 -155.94 319.72 C-155.16 321.44 -154.38 323.16 -153.59 324.88 C-153.23 325.68 -152.86 326.47 -152.49 327.29 C-150 332.77 -150 332.77 -150 335 C-149.34 335 -148.68 335 -148 335 C-147.67 335.66 -147.34 336.32 -147 337 C-146.58 336.03 -146.16 335.07 -145.73 334.07 C-135.28 310.08 -124.79 286.11 -114.27 262.16 C-112.01 257.02 -109.75 251.88 -107.5 246.74 C-107.13 245.9 -106.75 245.05 -106.37 244.18 C-105.25 241.62 -104.12 239.06 -103 236.5 C-98.87 227.09 -94.74 217.67 -90.6 208.26 C-80.02 184.19 -69.49 160.1 -59 136 C-50.38 116.2 -41.75 96.4 -33.06 76.62 C-32.69 75.78 -32.32 74.94 -31.94 74.08 C-28.07 65.26 -24.2 56.45 -20.31 47.64 C-18.68 43.94 -17.05 40.24 -15.43 36.54 C-14.66 34.8 -13.89 33.05 -13.12 31.31 C-8.54 20.95 -4.12 10.55 0 0 Z " fill="#FCFCF2" transform="translate(622,194)"/>
<path d="M0 0 C8.09 0.59 15.6 2.59 23.38 4.81 C24.06 5.01 24.75 5.2 25.46 5.4 C62.65 16 98.14 30.29 133 47 C133.92 47.44 134.84 47.88 135.79 48.33 C187.99 73.46 236.08 107.22 278.48 146.6 C280.05 148.05 281.63 149.49 283.21 150.93 C292.58 159.48 301.88 168.15 310.1 177.82 C312.12 180.14 314.2 182.38 316.3 184.63 C322.14 190.88 327.66 197.31 333 204 C333.92 205.13 334.84 206.26 335.77 207.39 C390.64 274.75 429.82 354.71 467 582 C459.94 582.11 453.02 581.88 446 581.12 C444.75 581.01 444.75 581.01 443.48 580.89 C442.68 580.8 441.88 580.72 441.06 580.63 C440.35 580.56 439.64 580.49 438.91 580.41 C437 580 437 580 434 578 C433.64 575.02 433.46 572.22 433.41 569.23 C433.35 567.37 433.29 565.51 433.23 563.65 C433.19 562.18 433.19 562.18 433.15 560.68 C431.13 488.97 415.75 417.8 387 352 C386.54 350.94 386.07 349.87 385.6 348.78 C365.12 302.26 337.83 258.82 305 220 C304.57 219.48 304.14 218.97 303.69 218.44 C292.29 204.85 280.14 192.06 267.62 179.5 C266.7 178.57 265.77 177.64 264.81 176.68 C259.7 171.58 254.5 166.68 249 162 C247.88 161.03 246.76 160.05 245.65 159.08 C238.2 152.63 230.62 146.39 222.8 140.38 C221.6 139.46 220.41 138.54 219.21 137.61 C194.18 118.17 167.02 101.74 139 87 C138.02 86.48 137.04 85.97 136.03 85.43 C90.91 61.87 43.39 45.9 -6 34 C-5.45 26.53 -4.45 19.28 -3 11.94 C-2.82 11 -2.64 10.07 -2.46 9.1 C-1.14 2.28 -1.14 2.28 0 0 Z " fill="#FCFCF2" transform="translate(782,63)"/>
<path d="M0 0 C-2.17 4.63 -4.36 9.25 -6.57 13.86 C-8.05 16.96 -9.47 20.07 -10.8 23.24 C-11.08 23.87 -11.36 24.5 -11.65 25.15 C-12.39 26.83 -13.1 28.52 -13.81 30.21 C-17.09 34.39 -21.06 35.37 -26 37 C-27.87 37.67 -29.74 38.34 -31.6 39.01 C-32.57 39.35 -33.54 39.69 -34.55 40.04 C-93.39 60.74 -149.77 90.54 -199 129 C-200.21 129.93 -201.41 130.86 -202.62 131.79 C-213.55 140.26 -224.1 149.14 -234.27 158.52 C-235.71 159.83 -237.16 161.14 -238.64 162.4 C-244.85 167.69 -250.58 173.43 -256.33 179.2 C-258.06 180.93 -259.8 182.67 -261.53 184.4 C-267.24 190.1 -272.77 195.85 -278 202 C-279.41 203.54 -280.83 205.09 -282.25 206.62 C-287.27 212.2 -291.87 218.07 -296.45 224 C-298.1 226.12 -299.76 228.23 -301.43 230.34 C-309.03 239.97 -316.22 249.77 -323 260 C-323.76 261.13 -323.76 261.13 -324.53 262.29 C-338.82 283.77 -351.43 305.94 -363 329 C-363.56 330.11 -364.11 331.21 -364.69 332.35 C-383.46 369.77 -397.74 409.42 -408 450 C-408.3 451.19 -408.6 452.38 -408.92 453.6 C-417.96 489.55 -423.24 526.06 -426 563 C-446.04 571.58 -446.04 571.58 -452 571 C-453.05 566.87 -452.96 563.32 -452.62 559.09 C-452.56 558.41 -452.51 557.74 -452.45 557.04 C-452.27 554.82 -452.07 552.6 -451.88 550.38 C-451.81 549.6 -451.74 548.83 -451.67 548.04 C-444.97 472.61 -425.7 397.94 -383 308 C-382.53 307.06 -382.06 306.11 -381.57 305.14 C-370.59 283.24 -357.96 262.12 -344 242 C-343.52 241.3 -343.03 240.6 -342.53 239.87 C-326.14 216.12 -308.04 193.66 -288.4 172.52 C-286.95 170.95 -285.51 169.37 -284.07 167.79 C-275.52 158.42 -266.85 149.12 -257.18 140.9 C-254.86 138.88 -252.62 136.8 -250.37 134.7 C-245.06 129.73 -239.66 124.95 -233.98 120.39 C-231.77 118.62 -229.58 116.83 -227.39 115.01 C-212.84 102.97 -197.5 92.25 -181.81 81.75 C-181.19 81.33 -180.57 80.91 -179.92 80.48 C-170.78 74.36 -161.48 68.57 -152 63 C-151.07 62.45 -150.14 61.9 -149.18 61.33 C-42.5 -1.18 -42.5 -1.18 0 0 Z " fill="#FCFCF2" transform="translate(479,67)"/>
<path d="M0 0 C4.25 1.7 7.22 4.73 10.5 7.81 C11.35 8.59 11.35 8.59 12.22 9.39 C15.46 12.4 18.33 15.46 21 19 C19.39 24.32 15.96 28.22 12.56 32.5 C11.93 33.3 11.3 34.1 10.66 34.92 C5.69 41.21 0.59 47.36 -4.64 53.42 C-6.05 55.05 -7.43 56.7 -8.82 58.35 C-19.76 71.33 -31.46 83.54 -43.44 95.56 C-44.27 96.4 -45.09 97.23 -45.95 98.09 C-50.25 102.37 -54.62 106.51 -59.22 110.47 C-61.64 112.55 -63.97 114.71 -66.31 116.88 C-71.71 121.8 -77.3 126.43 -83 131 C-84.12 131.91 -85.24 132.83 -86.36 133.74 C-101.94 146.4 -118.15 158.09 -135 169 C-135.75 169.49 -136.49 169.97 -137.26 170.48 C-150.19 178.88 -163.48 186.58 -177 194 C-178.29 194.71 -178.29 194.71 -179.6 195.43 C-248.04 232.94 -324.76 253.53 -402 262 C-404.18 257.65 -403.27 251.84 -403.31 247.06 C-403.34 245.86 -403.37 244.65 -403.4 243.41 C-403.41 242.25 -403.42 241.1 -403.43 239.91 C-403.44 238.85 -403.45 237.79 -403.47 236.7 C-403 234 -403 234 -401.48 232.22 C-398.05 230.53 -394.6 230.08 -390.84 229.61 C-389.18 229.37 -387.51 229.14 -385.85 228.91 C-384.98 228.79 -384.1 228.67 -383.21 228.55 C-365.59 226.17 -348.29 223.15 -331 219 C-329.21 218.58 -329.21 218.58 -327.39 218.15 C-245.45 198.7 -165.44 160.63 -101 106 C-99.49 104.73 -99.49 104.73 -97.94 103.43 C-95.8 101.63 -93.66 99.81 -91.53 98 C-89.35 96.14 -87.15 94.3 -84.95 92.47 C-75.32 84.46 -66.46 75.76 -57.63 66.89 C-55.18 64.43 -52.72 61.98 -50.26 59.53 C-42.38 51.66 -34.88 43.78 -28 35 C-26.4 33.16 -24.74 31.4 -23.06 29.62 C-14.58 20.39 -7.3 10.18 0 0 Z " fill="#FCFCF2" transform="translate(1116,974)"/>
<path d="M0 0 C3.49 1.16 3.69 1.69 5.43 4.77 C5.89 5.57 6.34 6.36 6.82 7.18 C7.31 8.05 7.8 8.92 8.31 9.81 C18.24 26.8 29.88 42.53 42 58 C42.73 58.93 43.45 59.86 44.2 60.82 C51.95 70.61 60.05 80.09 68.52 89.27 C69.82 90.71 71.12 92.15 72.38 93.63 C77.8 99.99 83.71 105.86 89.62 111.75 C91.43 113.56 93.24 115.37 95.04 117.18 C100.86 123 106.7 128.7 113 134 C114.09 134.95 115.19 135.9 116.28 136.85 C130.69 149.29 145.41 161.07 161 172 C161.76 172.53 162.51 173.06 163.29 173.61 C203.17 201.48 245.51 224.73 291 242 C292.2 242.46 293.4 242.91 294.64 243.38 C318.98 252.52 343.76 260.1 369.13 265.79 C370.28 266.06 371.43 266.32 372.61 266.59 C373.63 266.82 374.65 267.04 375.7 267.27 C376.46 267.51 377.22 267.75 378 268 C379.25 270.5 379.11 272.21 379.1 275.01 C379.09 275.99 379.09 276.98 379.09 278 C379.08 279.03 379.07 280.06 379.06 281.12 C379.06 282.17 379.05 283.21 379.05 284.28 C379.04 286.85 379.02 289.43 379 292 C368.33 290.65 357.88 288.66 347.38 286.38 C346.57 286.2 345.76 286.02 344.93 285.84 C251.47 265.42 165.02 220.77 80.7 147.56 C78.58 145.61 76.42 143.71 74.27 141.79 C68.95 137.01 63.86 132.01 58.81 126.94 C57.96 126.09 57.11 125.24 56.24 124.37 C51.83 119.96 47.58 115.49 43.52 110.76 C41.44 108.35 39.28 106.02 37.12 103.69 C32.21 98.28 27.54 92.72 23 87 C22.49 86.36 21.98 85.71 21.45 85.05 C5.26 64.59 -11.24 43.41 -23 20 C-18.98 15.87 -14.74 12.07 -10.38 8.31 C-9.71 7.73 -9.04 7.15 -8.35 6.55 C-5.63 4.19 -3.01 2 0 0 Z " fill="#FCFCF2" transform="translate(164,939)"/>
<path d="M0 0 C4.01 3.51 6.3 7.66 8.88 12.25 C10.12 14.46 11.37 16.65 12.69 18.81 C14 21 14 21 15.14 23.3 C16.57 25.78 17.69 27.29 20 29 C24.91 30.09 29.75 30.03 34.75 29.94 C36.1 29.94 37.46 29.94 38.81 29.95 C41.27 29.96 43.74 29.95 46.21 29.92 C49 30 49 30 51 31 C49.39 36.1 46.28 39.89 43.06 44.06 C42.52 44.77 41.99 45.48 41.43 46.21 C40.91 46.89 40.39 47.58 39.85 48.29 C39.1 49.27 39.1 49.27 38.34 50.27 C37.3 51.62 36.19 52.91 35.06 54.18 C33.77 55.98 33.77 55.98 34.24 58.29 C35.1 61.35 36.35 63.5 38.09 66.16 C38.71 67.12 39.33 68.08 39.97 69.06 C40.62 70.05 41.27 71.04 41.94 72.06 C43.22 74.03 44.5 76 45.78 77.97 C46.35 78.84 46.92 79.71 47.5 80.61 C48.81 82.69 49.95 84.78 51 87 C50.13 86.98 49.26 86.96 48.36 86.93 C45.09 86.87 41.83 86.86 38.57 86.88 C37.16 86.88 35.75 86.86 34.35 86.82 C25.94 86.43 25.94 86.43 18.66 90 C16.84 92.58 15.41 95.17 14 98 C13.06 99.5 12.1 100.99 11.13 102.48 C10.27 103.86 9.42 105.24 8.56 106.62 C8.12 107.34 7.67 108.06 7.21 108.8 C6.14 110.53 5.07 112.27 4 114 C0.06 111.6 -1.53 109.18 -3.28 105.05 C-6.01 98.94 -8.62 93.2 -14 89 C-23.61 86.08 -34.13 87.06 -44 88 C-44 83.78 -41.75 81.29 -39.44 77.94 C-38.99 77.27 -38.53 76.6 -38.07 75.91 C-34.9 71.23 -31.61 66.65 -28.18 62.15 C-26.67 59.39 -26.41 58.11 -27 55 C-28.62 52.74 -30.2 50.79 -32.06 48.75 C-33.07 47.6 -34.08 46.45 -35.08 45.3 C-35.58 44.74 -36.07 44.19 -36.58 43.61 C-38.52 41.4 -40.4 39.16 -42.25 36.88 C-42.81 36.19 -43.37 35.51 -43.95 34.8 C-44.3 34.21 -44.64 33.61 -45 33 C-44.67 32.01 -44.34 31.02 -44 30 C-35.42 30 -26.84 30 -18 30 C-17.34 28.35 -16.68 26.7 -16 25 C-14.89 23.08 -13.74 21.18 -12.56 19.3 C-11.89 18.23 -11.23 17.17 -10.54 16.08 C-9.5 14.43 -9.5 14.43 -8.44 12.75 C-7.74 11.64 -7.04 10.52 -6.32 9.38 C-1.15 1.15 -1.15 1.15 0 0 Z " fill="#FCFCF2" transform="translate(1179,768)"/>
<path d="M0 0 C0.66 0 1.32 0 2 0 C2.31 0.59 2.61 1.17 2.93 1.77 C6.34 8.18 9.99 14.42 13.75 20.62 C14.48 21.83 14.48 21.83 15.22 23.07 C15.68 23.82 16.14 24.58 16.61 25.35 C17.23 26.37 17.23 26.37 17.86 27.41 C18.93 29.16 18.93 29.16 21 30 C23.08 30.14 25.17 30.23 27.25 30.28 C29.12 30.34 29.12 30.34 31.03 30.39 C33 30.45 33 30.45 35 30.5 C37.58 30.57 40.17 30.64 42.75 30.72 C43.9 30.75 45.05 30.78 46.23 30.81 C49 31 49 31 51 32 C49.4 37.08 46.29 40.8 43.06 44.94 C37.6 51.48 37.6 51.48 34 59 C34.95 61.88 36.57 64.17 38.31 66.62 C38.78 67.32 39.24 68.01 39.72 68.73 C41.12 70.84 42.56 72.92 44 75 C44.81 76.21 45.62 77.42 46.42 78.64 C47.77 80.68 49.13 82.72 50.5 84.74 C52 87 52 87 53 89 C52.07 88.95 51.13 88.9 50.17 88.84 C46.69 88.67 43.2 88.55 39.71 88.45 C38.21 88.4 36.7 88.33 35.2 88.25 C26.35 87.52 26.35 87.52 18.58 90.98 C16.74 93.57 15.35 96.13 14 99 C13.15 100.43 12.29 101.85 11.42 103.26 C10.28 105.22 9.15 107.19 8.03 109.16 C7.07 110.8 6.04 112.41 5 114 C4.34 114 3.68 114 3 114 C3 113.34 3 112.68 3 112 C2.01 111.67 1.02 111.34 0 111 C-1.17 108.88 -1.17 108.88 -2.34 106.12 C-5.42 99.7 -8.38 93.56 -14 89 C-23.21 86.01 -33.49 87 -43 88 C-43.33 87.34 -43.66 86.68 -44 86 C-43.31 84.96 -43.31 84.96 -42.6 83.9 C-41.21 81.82 -39.83 79.74 -38.45 77.65 C-36.74 75.07 -34.97 72.55 -33.17 70.04 C-32.71 69.38 -32.24 68.72 -31.76 68.04 C-30.85 66.74 -29.92 65.44 -28.98 64.17 C-26.49 60.65 -26.49 60.65 -26.39 56.49 C-28.52 53.19 -30.84 50.11 -33.31 47.06 C-33.79 46.47 -34.26 45.87 -34.75 45.26 C-37.56 41.74 -37.56 41.74 -40.51 38.33 C-41.74 36.94 -42.88 35.48 -44 34 C-43.67 33.01 -43.34 32.02 -43 31 C-34.75 31 -26.5 31 -18 31 C-17.34 29.35 -16.68 27.7 -16 26 C-15.14 24.51 -14.25 23.05 -13.32 21.6 C-12.54 20.39 -12.54 20.39 -11.75 19.15 C-11.22 18.32 -10.68 17.48 -10.12 16.62 C-6.61 11.15 -3.17 5.68 0 0 Z " fill="#FCFCF2" transform="translate(636,9)"/>
<path d="M0 0 C3.06 2.86 5.25 5.74 7.42 9.32 C8.03 10.33 8.65 11.34 9.28 12.38 C9.91 13.43 10.54 14.48 11.19 15.56 C11.83 16.62 12.47 17.67 13.13 18.76 C17.86 26.58 17.86 26.58 19 30 C20.35 30.04 20.35 30.04 21.72 30.08 C25.05 30.17 28.38 30.27 31.71 30.37 C33.15 30.42 34.59 30.46 36.03 30.5 C38.1 30.56 40.17 30.62 42.24 30.68 C43.49 30.72 44.73 30.76 46.02 30.79 C49 31 49 31 51 32 C49.4 37.08 46.29 40.8 43.06 44.94 C40.99 47.59 38.98 50.27 37 53 C35.9 54.44 35.9 54.44 34.78 55.91 C33.84 59.63 34.33 60.26 36.16 63.5 C37.25 65.16 38.36 66.81 39.5 68.44 C40.04 69.26 40.59 70.08 41.15 70.92 C43.65 74.67 46.24 78.34 48.91 81.97 C51 85 51 85 51 87 C50.18 87 49.36 87.01 48.51 87.01 C44.78 87.05 41.04 87.12 37.31 87.19 C36.02 87.19 34.73 87.2 33.39 87.21 C32.15 87.23 30.9 87.26 29.61 87.29 C27.89 87.32 27.89 87.32 26.14 87.34 C21.26 88.37 19.18 91.37 16.35 95.28 C15.88 96.04 15.41 96.79 14.92 97.57 C14.4 98.41 13.88 99.24 13.34 100.1 C12.82 100.95 12.29 101.81 11.75 102.69 C10.94 103.99 10.94 103.99 10.11 105.31 C7.42 109.58 7.42 109.58 5 114 C4.34 114 3.68 114 3 114 C3 113.34 3 112.68 3 112 C2.01 111.67 1.02 111.34 0 111 C-1.53 108.99 -1.53 108.99 -3.14 106.38 C-3.71 105.44 -4.29 104.51 -4.88 103.54 C-5.48 102.56 -6.07 101.58 -6.69 100.56 C-7.29 99.58 -7.9 98.6 -8.53 97.59 C-13 90.28 -13 90.28 -13 88 C-22.9 88 -32.8 88 -43 88 C-43.33 87.34 -43.66 86.68 -44 86 C-42.95 84.42 -41.9 82.85 -40.85 81.27 C-39.94 79.92 -39.04 78.56 -38.14 77.2 C-35.98 73.93 -33.79 70.68 -31.48 67.51 C-30.75 66.47 -30.01 65.44 -29.25 64.38 C-28.57 63.45 -27.9 62.53 -27.2 61.59 C-25.74 59.1 -25.74 59.1 -26.46 56.6 C-28.48 53.18 -30.82 50.14 -33.31 47.06 C-33.79 46.47 -34.26 45.87 -34.75 45.26 C-37.56 41.74 -37.56 41.74 -40.51 38.33 C-41.74 36.94 -42.88 35.48 -44 34 C-43.67 33.01 -43.34 32.02 -43 31 C-42.35 30.98 -41.71 30.96 -41.04 30.94 C-38.11 30.84 -35.18 30.73 -32.25 30.62 C-30.73 30.58 -30.73 30.58 -29.17 30.53 C-28.19 30.49 -27.21 30.45 -26.2 30.41 C-24.85 30.37 -24.85 30.37 -23.47 30.32 C-19.98 29.87 -17.85 29.07 -15.63 26.28 C-15.23 25.6 -14.83 24.92 -14.41 24.22 C-13.96 23.46 -13.51 22.71 -13.04 21.93 C-12.57 21.13 -12.11 20.33 -11.62 19.5 C-11.14 18.69 -10.66 17.88 -10.16 17.04 C-9.2 15.43 -8.25 13.82 -7.3 12.21 C-5.66 9.42 -3.99 6.65 -2.31 3.88 C-1.54 2.58 -0.77 1.29 0 0 Z " fill="#FCFCF2" transform="translate(94,769)"/>
</svg>
